<svg width="38" height="18" viewBox="0 0 38 18" fill="none" xmlns="http://www.w3.org/2000/svg">
<g clip-path="url(#clip0_9_340)">
<path d="M6.24004 4.75852C6.24004 4.75852 6.34864 4.68752 6.55748 4.55386C6.66189 4.48703 6.7872 4.40767 6.93756 4.31161C7.09628 4.22807 7.2884 4.14454 7.50142 4.0443C7.71443 3.93153 7.96504 3.86887 8.23235 3.77699C8.49966 3.67257 8.80456 3.6308 9.13035 3.56815C9.45613 3.49297 9.8028 3.49297 10.1745 3.4512C10.5421 3.44285 10.9347 3.43867 11.3357 3.46373C12.146 3.5055 13.0064 3.63915 13.9044 3.83128C14.794 4.03594 15.7296 4.26984 16.6652 4.57057C17.605 4.86294 18.574 5.15949 19.5388 5.48527C20.5078 5.80271 21.4893 6.12014 22.475 6.38327C23.4566 6.66729 24.4423 6.9179 25.4196 7.08497C25.9083 7.18103 26.3928 7.23533 26.8731 7.31051C27.3535 7.35645 27.8296 7.41493 28.2974 7.42328C28.5313 7.42746 28.7652 7.43164 28.9949 7.43999C29.2247 7.43164 29.4502 7.42328 29.6757 7.41911C30.1268 7.41911 30.5654 7.35228 30.9914 7.31051C31.4174 7.26039 31.8268 7.15597 32.2277 7.09332C32.6245 6.99308 33.0046 6.89284 33.368 6.79677C33.7272 6.67147 34.0697 6.55034 34.3996 6.43339C34.7254 6.30809 35.022 6.16608 35.3102 6.04496C35.6025 5.93218 35.8531 5.78182 36.0996 5.65652C36.3418 5.53122 36.5674 5.41845 36.7678 5.31403C37.5405 4.84206 38 4.57474 38 4.57474C38 4.57474 37.6283 4.93812 36.9391 5.56045C36.5674 5.83194 36.1455 6.21203 35.5942 6.55034C35.3185 6.71741 35.0303 6.91372 34.7129 7.09332C34.3829 7.25621 34.0404 7.42746 33.6771 7.60706C33.3012 7.75324 32.9085 7.90778 32.4992 8.0665C32.0815 8.18345 31.6472 8.32546 31.1919 8.42152C30.7366 8.50506 30.2647 8.61783 29.776 8.6596C29.5337 8.68883 29.2873 8.72225 29.0367 8.73478C28.7861 8.74313 28.5355 8.75149 28.2807 8.75566C27.2658 8.76402 26.2132 8.7139 25.169 8.53012C24.1207 8.36723 23.0807 8.12497 22.0574 7.84096C21.0341 7.54858 20.04 7.20609 19.0626 6.86777C18.0853 6.53364 17.1497 6.15773 16.235 5.83194C15.3203 5.50198 14.4473 5.18872 13.6078 4.92141C12.7683 4.67916 11.9705 4.45362 11.2271 4.32414C10.8553 4.25313 10.4961 4.2239 10.1536 4.17795C9.81116 4.1696 9.48119 4.1153 9.17629 4.14454C8.87139 4.15707 8.57902 4.16125 8.31588 4.20719C8.05275 4.24478 7.80214 4.26566 7.58913 4.32832C7.37194 4.38261 7.17563 4.43273 7.00856 4.4745C6.84149 4.53715 6.69948 4.59145 6.58671 4.63322C6.35699 4.71675 6.23169 4.7627 6.23169 4.7627L6.24004 4.75852Z" fill="#5A5844"/>
<path d="M0 8.40901C0 8.40901 0.0918883 8.35053 0.263135 8.23776C0.34667 8.18346 0.455265 8.11246 0.57639 8.0331C0.705869 7.96209 0.864586 7.89109 1.04419 7.81173C1.21961 7.71984 1.42845 7.66555 1.64981 7.59036C1.87118 7.50683 2.12596 7.46924 2.39327 7.41912C2.66058 7.35647 2.95296 7.35647 3.25786 7.31888C3.56276 7.31052 3.88855 7.30635 4.22269 7.33141C4.89514 7.36482 5.60936 7.47759 6.35282 7.63631C7.09211 7.80338 7.86481 7.99968 8.64168 8.24611C9.41855 8.48836 10.2247 8.73479 11.0224 9.00628C11.8244 9.26941 12.6388 9.53255 13.4575 9.74974C14.2719 9.98364 15.0906 10.1925 15.9009 10.3345C16.306 10.4138 16.7111 10.4598 17.1079 10.5224C17.5047 10.56 17.9015 10.6101 18.29 10.6143C18.4863 10.6185 18.6784 10.6227 18.8663 10.6269C19.0585 10.6185 19.2464 10.6143 19.4302 10.606C19.8061 10.606 20.1653 10.5517 20.5245 10.5141C20.8795 10.4723 21.2178 10.3846 21.552 10.3345C21.8778 10.2509 22.1952 10.1674 22.5001 10.0881C22.7967 9.98364 23.0849 9.8834 23.3563 9.78733C23.6237 9.68291 23.8743 9.56596 24.1123 9.46572C24.5885 9.26106 24.9769 9.02299 25.3194 8.86009C25.9668 8.47166 26.3385 8.24611 26.3385 8.24611C26.3385 8.24611 26.2592 8.32129 26.113 8.45913C25.9626 8.59696 25.7496 8.80997 25.4614 9.06058C25.1523 9.28612 24.8015 9.59938 24.3462 9.87922C24.1165 10.0212 23.8784 10.1799 23.6153 10.3303C23.3438 10.464 23.0556 10.606 22.7591 10.7563C22.4458 10.8775 22.12 11.0028 21.7817 11.1364C21.435 11.2325 21.0758 11.3494 20.6958 11.4288C19.9398 11.5875 19.1253 11.7086 18.2816 11.7086C17.4421 11.7128 16.565 11.6752 15.7004 11.5207C14.8316 11.387 13.967 11.1824 13.1191 10.9485C12.2713 10.7062 11.4443 10.4222 10.634 10.1424C9.8237 9.86669 9.04682 9.55343 8.29083 9.28194C7.53484 9.01046 6.80809 8.74732 6.11475 8.53013C5.41723 8.32965 4.75731 8.14169 4.13915 8.0331C3.52099 7.92868 2.94878 7.87021 2.43922 7.88274C2.18444 7.89109 1.94219 7.89527 1.72499 7.93286C1.5078 7.96209 1.29897 7.9788 1.12354 8.0331C0.943944 8.07904 0.781051 8.11663 0.643218 8.15422C0.505386 8.20435 0.388437 8.25029 0.292372 8.2837C0.100242 8.35471 0 8.3923 0 8.3923L0 8.40901Z" fill="#5A5844"/>
<path d="M8.2908 14.9205C8.2908 14.9205 8.35345 14.8746 8.47457 14.7911C8.53305 14.7493 8.60823 14.6992 8.69594 14.6365C8.78783 14.5822 8.9006 14.5279 9.03008 14.4653C9.28486 14.3441 9.61065 14.223 9.99909 14.152C10.1954 14.1019 10.4042 14.0935 10.6256 14.0643C10.847 14.0518 11.0809 14.0476 11.3231 14.056C11.8118 14.0685 12.3297 14.1395 12.8685 14.2481C13.4031 14.3609 13.9628 14.4903 14.5225 14.6658C15.0822 14.837 15.6586 15.0041 16.2308 15.192C16.803 15.3758 17.3836 15.5638 17.9641 15.7141C18.5405 15.8812 19.1211 16.0232 19.6891 16.1318C20.2613 16.2404 20.821 16.3239 21.3682 16.3448C21.9153 16.3699 22.4416 16.3532 22.9428 16.303C23.1934 16.278 23.4315 16.2195 23.6654 16.1903C23.8993 16.136 24.1206 16.0858 24.3378 16.0357C24.5509 15.9689 24.7555 15.9021 24.9476 15.8394C25.1398 15.7726 25.3194 15.6932 25.4906 15.6264C25.8331 15.4886 26.1171 15.334 26.3677 15.2254C26.8355 14.9623 27.1154 14.8161 27.1154 14.8161C27.1154 14.8161 26.9065 15.0458 26.5097 15.4301C26.2967 15.5972 26.0503 15.8352 25.7245 16.0483C25.5616 16.1527 25.3904 16.2738 25.2066 16.3866C25.0103 16.4868 24.8056 16.5954 24.5926 16.7082C24.3671 16.8001 24.1332 16.9003 23.8909 17.0006C23.6403 17.0757 23.3814 17.1634 23.1057 17.2261C22.5585 17.3514 21.9696 17.4475 21.3556 17.4516C20.7458 17.46 20.111 17.4391 19.4845 17.3305C18.8538 17.2428 18.2314 17.0924 17.6216 16.9212C17.0118 16.7458 16.4187 16.5411 15.8382 16.3365C15.2576 16.136 14.7063 15.9062 14.1675 15.7058C13.6287 15.5095 13.1191 15.3131 12.6263 15.1461C12.1334 14.9957 11.6698 14.8495 11.2354 14.766C10.801 14.6825 10.3959 14.6282 10.0367 14.624C9.67748 14.624 9.35587 14.649 9.10109 14.6992C8.97161 14.7242 8.85466 14.7493 8.75442 14.7702C8.65417 14.8036 8.56646 14.8328 8.49964 14.8537C8.3618 14.8997 8.28662 14.9205 8.28662 14.9205H8.2908Z" fill="#ACCF8C"/>
<path d="M10.9849 1.34195C10.9849 1.34195 11.035 1.30019 11.1353 1.22501C11.1854 1.18741 11.2438 1.14147 11.319 1.09135C11.3942 1.04541 11.4903 0.995284 11.5947 0.940987C11.8077 0.832391 12.0792 0.723796 12.4092 0.656968C12.7391 0.581787 13.1192 0.544196 13.5285 0.556726C14.3555 0.569257 15.2828 0.76974 16.2267 1.03705C17.1706 1.30436 18.1438 1.6385 19.1087 1.90581C19.589 2.04365 20.0693 2.16477 20.5455 2.25666C21.0174 2.35273 21.4852 2.4112 21.9363 2.44044C22.3874 2.46967 22.826 2.46132 23.2394 2.42373C23.4483 2.40702 23.6446 2.36108 23.8409 2.3402C24.033 2.29843 24.221 2.25666 24.4006 2.21907C24.5802 2.16477 24.7473 2.11465 24.9101 2.06453C25.073 2.01023 25.2234 1.95176 25.3696 1.89746C25.6578 1.78887 25.9 1.66356 26.1089 1.58003C26.5057 1.37119 26.7479 1.25424 26.7479 1.25424C26.7479 1.25424 26.5767 1.45055 26.2509 1.78469C26.0755 1.93087 25.8708 2.13553 25.5993 2.31931C25.4657 2.4112 25.3236 2.51562 25.1649 2.61586C25.002 2.70357 24.8308 2.79964 24.6512 2.8957C24.4632 2.97924 24.2669 3.06277 24.0623 3.15048C23.8493 3.21731 23.6321 3.29249 23.4023 3.34679C22.9429 3.45539 22.4417 3.5431 21.9238 3.55563C20.8838 3.59739 19.7936 3.40944 18.7703 3.11707C17.7429 2.8247 16.7697 2.43626 15.88 2.08959C15.4331 1.91834 15.0071 1.7471 14.6019 1.60509C14.1926 1.47561 13.8125 1.35031 13.4492 1.27095C13.09 1.19577 12.7558 1.14147 12.4551 1.13312C12.1586 1.12476 11.8871 1.14147 11.6741 1.17488C11.5655 1.19577 11.4694 1.21247 11.3817 1.22918C11.2981 1.25424 11.223 1.27513 11.1645 1.29601C11.0475 1.32942 10.9807 1.34613 10.9807 1.34613L10.9849 1.34195Z" fill="#ACCF8C"/>
<path d="M3.57117 11.0027C3.57117 11.0027 3.68812 10.9276 3.90948 10.7814C4.01808 10.7104 4.15591 10.6227 4.31463 10.5224C4.4817 10.4347 4.68636 10.3428 4.91608 10.2384C5.14162 10.1215 5.40893 10.0505 5.69713 9.95439C5.98532 9.84579 6.30693 9.79985 6.6536 9.73302C7.00027 9.64948 7.372 9.65366 7.76462 9.60772C8.15723 9.59936 8.5749 9.59519 9.00511 9.62442C9.86969 9.67037 10.7886 9.81238 11.7451 10.017C12.6932 10.2342 13.6914 10.4848 14.6897 10.8023C15.6921 11.1155 16.7237 11.433 17.7554 11.7796C18.787 12.1179 19.8354 12.4563 20.8879 12.7361C21.9363 13.041 22.9847 13.3083 24.0289 13.4879C24.5509 13.5882 25.0689 13.6508 25.5826 13.726C25.8374 13.7594 26.0922 13.7719 26.3469 13.797C26.6017 13.8179 26.8523 13.8429 27.1029 13.8429C27.3535 13.8471 27.6 13.8555 27.8464 13.8596C28.0928 13.8596 28.3351 13.8388 28.5731 13.8346C29.0576 13.8346 29.5213 13.7636 29.9765 13.7176C30.4318 13.6675 30.8662 13.5547 31.2964 13.4879C31.7182 13.3793 32.1234 13.2749 32.516 13.1705C32.9002 13.0368 33.2678 12.9073 33.6145 12.7862C33.9611 12.6526 34.2786 12.5022 34.5877 12.3727C34.9009 12.2516 35.1682 12.0887 35.4272 11.9592C35.6861 11.8256 35.9242 11.7044 36.1372 11.5917C36.96 11.0863 37.4487 10.8064 37.4487 10.8064C37.4487 10.8064 37.3485 10.9025 37.1563 11.0821C36.9642 11.2575 36.6886 11.529 36.3168 11.8548C36.1205 12.0052 35.9075 12.1722 35.6694 12.3518C35.4355 12.5356 35.1766 12.7319 34.88 12.9073C34.5877 13.0869 34.2786 13.2916 33.9403 13.4879C33.5894 13.6633 33.2219 13.8429 32.8376 14.0351C32.4366 14.1896 32.0148 14.3567 31.5846 14.5237C31.1377 14.649 30.674 14.7994 30.1895 14.8996C29.7009 14.9915 29.1997 15.1085 28.6817 15.1544C28.4228 15.1837 28.1596 15.2213 27.8923 15.2338C27.625 15.2421 27.3577 15.2505 27.0862 15.2588C26.0044 15.2672 24.8809 15.2129 23.7699 15.0166C22.6547 14.8454 21.5437 14.5822 20.4494 14.2815C19.3593 13.9682 18.2942 13.6049 17.2542 13.2457C16.21 12.8906 15.2159 12.4897 14.2386 12.1388C13.2654 11.788 12.334 11.4538 11.4401 11.1698C10.5421 10.9109 9.69427 10.6686 8.90069 10.5308C8.5039 10.4556 8.11964 10.4222 7.75626 10.3762C7.39289 10.3679 7.03786 10.3094 6.71625 10.3386C6.39047 10.3512 6.07721 10.3554 5.79737 10.4055C5.51753 10.4472 5.24604 10.4639 5.02467 10.535C4.79078 10.5934 4.58612 10.6435 4.40652 10.6895C4.22692 10.7563 4.07655 10.8148 3.95543 10.8607C3.709 10.9526 3.57952 10.9986 3.57952 10.9986L3.57117 11.0027Z" fill="#5A5844"/>
</g>
<defs>
<clipPath id="clip0_9_340">
<rect width="38" height="16.8949" fill="white" transform="translate(0 0.552551)"/>
</clipPath>
</defs>
</svg>
