<svg width="50" height="50" viewBox="0 0 50 50" fill="none" xmlns="http://www.w3.org/2000/svg">
<path d="M25 0C20.0555 0 15.222 1.46622 11.1108 4.21326C6.99952 6.96029 3.79521 10.8648 1.90302 15.4329C0.0108321 20.0011 -0.484251 25.0277 0.480379 29.8773C1.44501 34.7268 3.82603 39.1814 7.32234 42.6777C10.8187 46.174 15.2732 48.555 20.1227 49.5196C24.9723 50.4843 29.9989 49.9892 34.5671 48.097C39.1352 46.2048 43.0397 43.0005 45.7867 38.8893C48.5338 34.778 50 29.9445 50 25C49.9928 18.3718 47.3566 12.0171 42.6698 7.33025C37.9829 2.64339 31.6282 0.00716892 25 0V0ZM45.8333 25C45.8358 29.0827 44.6312 33.0751 42.3708 36.475L39.8875 33.9896C39.6928 33.7944 39.5834 33.5299 39.5833 33.2542V31.25C39.5833 29.5924 38.9249 28.0027 37.7528 26.8306C36.5807 25.6585 34.9909 25 33.3333 25H27.0833C26.5308 25 26.0009 24.7805 25.6102 24.3898C25.2195 23.9991 25 23.4692 25 22.9167V21.875C25 21.5987 25.1098 21.3338 25.3051 21.1384C25.5005 20.9431 25.7654 20.8333 26.0417 20.8333C27.423 20.8333 28.7478 20.2846 29.7245 19.3078C30.7013 18.3311 31.25 17.0063 31.25 15.625V13.5417C31.25 13.2654 31.3597 13.0004 31.5551 12.8051C31.7505 12.6097 32.0154 12.5 32.2917 12.5H35.1646C36.5446 12.4961 37.8673 11.9481 38.8458 10.975L39.6313 10.1896C41.5962 12.1231 43.1566 14.4284 44.2214 16.9712C45.2863 19.514 45.8342 22.2433 45.8333 25ZM4.26876 27.0062L10.8479 33.5854C11.4269 34.1681 12.1158 34.63 12.8747 34.9444C13.6336 35.2587 14.4473 35.4193 15.2688 35.4167H20.8333C21.3859 35.4167 21.9158 35.6362 22.3065 36.0269C22.6972 36.4176 22.9167 36.9475 22.9167 37.5V45.7271C18.1254 45.238 13.6508 43.1066 10.2519 39.6944C6.85305 36.2822 4.73914 31.7994 4.26876 27.0062ZM27.0833 45.7271V37.5C27.0833 35.8424 26.4249 34.2527 25.2528 33.0806C24.0807 31.9085 22.4909 31.25 20.8333 31.25H15.2688C14.9948 31.2502 14.7236 31.1964 14.4705 31.0917C14.2174 30.9869 13.9874 30.8333 13.7938 30.6396L4.50626 21.3521C5.10246 17.9629 6.53071 14.7748 8.66287 12.0737C10.795 9.37264 13.5644 7.24314 16.7225 5.87628C19.8806 4.50941 23.3286 3.94795 26.7572 4.24225C30.1858 4.53656 33.4877 5.67743 36.3667 7.5625L35.9 8.02917C35.7039 8.22256 35.44 8.3317 35.1646 8.33333H32.2917C30.9103 8.33333 29.5856 8.88207 28.6088 9.85882C27.6321 10.8356 27.0833 12.1603 27.0833 13.5417V15.625C27.0833 15.9013 26.9736 16.1662 26.7782 16.3616C26.5829 16.5569 26.3179 16.6667 26.0417 16.6667C24.6603 16.6667 23.3356 17.2154 22.3588 18.1922C21.3821 19.1689 20.8333 20.4937 20.8333 21.875V22.9167C20.8333 24.5743 21.4918 26.164 22.6639 27.3361C23.836 28.5082 25.4257 29.1667 27.0833 29.1667H33.3333C33.8859 29.1667 34.4158 29.3862 34.8065 29.7769C35.1972 30.1676 35.4167 30.6975 35.4167 31.25V33.2542C35.4206 34.6341 35.9686 35.9569 36.9417 36.9354L39.7271 39.7208C36.3343 43.1254 31.8659 45.248 27.0833 45.7271Z" fill="#77975D"/>
</svg>
