<svg width="32" height="38" viewBox="0 0 32 38" fill="none" xmlns="http://www.w3.org/2000/svg">
<g clip-path="url(#clip0_9_334)">
<path d="M28.7903 20.4727H18.5419V37.9961H28.7903C29.5408 37.9961 30.145 37.3789 30.145 36.6211V21.8477C30.145 21.0859 29.5369 20.4727 28.7903 20.4727Z" fill="#595844"/>
<path d="M1.85498 21.8516V36.625C1.85498 37.3867 2.46304 38 3.20964 38H13.4581V20.4766H3.20964C2.45919 20.4766 1.85498 21.0938 1.85498 21.8516Z" fill="#595844"/>
<path d="M0 13.1328V17.4453C0 18.207 0.608058 18.8203 1.35466 18.8203H13.4581V11.7539H1.35466C0.604209 11.7539 0 12.3711 0 13.1289L0 13.1328Z" fill="#595844"/>
<path d="M30.6454 11.7578H18.515L18.542 18.8242H30.6454C31.3958 18.8242 32 18.207 32 17.4492V13.1367C32 12.375 31.392 11.7617 30.6454 11.7617V11.7578Z" fill="#595844"/>
<path d="M5.62652 10.2031C5.7843 10.293 6.03061 10.4375 6.75412 10.4375H25.069C25.8618 10.4375 26.1773 10.2852 26.3467 10.1836C27.5589 9.45703 28.3209 7.93359 28.3209 5.98828C28.3209 4.54297 27.8707 3.10156 27.0856 2.03516C26.1234 0.722656 24.6957 0 23.0639 0C22.9292 0 22.7945 0.00390625 22.656 0.015625C18.3803 0.316406 16.6447 4.43359 15.9673 7.08984C15.2862 4.43359 13.5505 0.3125 9.27871 0.015625C9.14017 0.0078125 9.00547 0 8.87077 0C7.24287 0 5.81509 0.722656 4.84913 2.03516C4.06404 3.10156 3.61377 4.54297 3.61377 5.98828C3.61377 7.95312 4.39116 9.48828 5.62267 10.2031H5.62652ZM22.8215 2.48438C22.9023 2.48047 22.9831 2.47656 23.0639 2.47656C23.926 2.47656 24.6225 2.82422 25.1267 3.51562C25.6039 4.16406 25.8771 5.06641 25.8771 5.98828C25.8771 6.74609 25.6193 8.17578 24.6379 8.17578H18.2225C18.6651 6.1875 19.8581 2.69141 22.8253 2.48438H22.8215ZM6.80415 3.51172C7.3083 2.82422 8.00487 2.47266 8.86693 2.47266C8.9439 2.47266 9.02471 2.47266 9.10938 2.48047C12.0765 2.6875 13.2696 6.18359 13.7121 8.17188H7.29675C6.31539 8.17188 6.05755 6.73828 6.05755 5.98438C6.05755 5.0625 6.33079 4.16016 6.808 3.51172H6.80415Z" fill="#ACD08D"/>
</g>
<defs>
<clipPath id="clip0_9_334">
<rect width="32" height="38" fill="white"/>
</clipPath>
</defs>
</svg>
