<svg width="50" height="50" viewBox="0 0 50 50" fill="none" xmlns="http://www.w3.org/2000/svg">
<path fill-rule="evenodd" clip-rule="evenodd" d="M24.4677 2.50509C24.4679 2.50538 24.4676 2.5048 24.4677 2.50509ZM25 3.63368L26.8501 7.55658C27.0509 7.98249 27.4505 8.28058 27.916 8.35179L32.1838 9.00467L29.0543 12.1948C28.7386 12.5167 28.5951 12.9697 28.668 13.4146L29.3926 17.8368L25.6823 15.7946C25.2575 15.5608 24.7425 15.5608 24.3177 15.7946L20.6073 17.8368L21.332 13.4147C21.4049 12.9697 21.2614 12.5167 20.9457 12.1948L17.8162 9.00466L22.084 8.35179C22.5495 8.28058 22.9491 7.98249 23.1499 7.55658L25 3.63368ZM19.553 18.4171C19.553 18.4171 19.5531 18.417 19.553 18.4171ZM27.0275 1.29786C26.2115 -0.43262 23.7885 -0.43262 22.9725 1.29786C22.9725 1.29785 22.9724 1.29787 22.9725 1.29786L20.9114 5.66805L16.3281 6.36919C14.4183 6.66139 13.8299 8.98247 15.0708 10.2475L18.4231 13.6648L17.6294 18.508C17.3464 20.235 19.1404 21.8749 20.9179 20.8964C20.9179 20.8964 20.918 20.8964 20.9179 20.8964L25 18.6496L29.0819 20.8963C29.0818 20.8963 29.0819 20.8963 29.0819 20.8963C30.8595 21.8748 32.6536 20.235 32.3705 18.5081C32.3705 18.5081 32.3705 18.508 32.3705 18.5081L31.5769 13.6648L34.9292 10.2475C36.1695 8.9828 35.5822 6.66142 33.6718 6.36919L29.0886 5.66805L27.0275 1.29786C27.0275 1.29787 27.0275 1.29785 27.0275 1.29786ZM18.7107 26.4151C18.6238 26.4151 18.5535 26.4855 18.5535 26.5723V47.1698H31.4465V26.5723C31.4465 26.4854 31.3762 26.4151 31.2893 26.4151H18.7107ZM34.2767 38.002V26.5723C34.2767 24.9223 32.9393 23.5849 31.2893 23.5849H18.7107C17.0608 23.5849 15.7233 24.9223 15.7233 26.5723V32.7609C15.6712 32.7582 15.6188 32.7568 15.566 32.7568H2.98742C1.33756 32.7568 0 34.0942 0 35.7442V47.0126C0 48.6626 1.33756 50 2.98742 50H47.0126C48.6626 50 50 48.6626 50 47.0126V40.9853C50 39.3353 48.6626 37.9979 47.0126 37.9979H34.434C34.3812 37.9979 34.3288 37.9993 34.2767 38.002ZM34.2767 40.9853V47.1698H47.0126C47.0995 47.1698 47.1698 47.0995 47.1698 47.0126V40.9853C47.1698 40.8984 47.0995 40.8281 47.0126 40.8281H34.434C34.347 40.8281 34.2767 40.8984 34.2767 40.9853ZM15.7233 35.7442C15.7233 35.6574 15.6529 35.587 15.566 35.587H2.98742C2.90054 35.587 2.83019 35.6574 2.83019 35.7442V47.0126C2.83019 47.0994 2.90054 47.1698 2.98742 47.1698H15.7233V35.7442Z" fill="#77975D"/>
</svg>
