<svg width="39" height="50" viewBox="0 0 39 50" fill="none" xmlns="http://www.w3.org/2000/svg">
<path d="M38.8077 19.4047C38.8077 8.68884 30.1205 0 19.4047 0C8.68884 0 0 8.68884 0 19.4047C0 25.6658 2.9698 31.2317 7.57264 34.7789L18.8811 49.7828C19.1707 50.0724 19.637 50.0724 19.9266 49.7828L31.2351 34.7789C35.8396 31.2317 38.8077 25.6658 38.8077 19.4047Z" fill="url(#paint0_linear_26_544)"/>
<path d="M35 19.5C35 28.062 28.0606 35 19.5009 35C10.9411 35 4 28.062 4 19.5C4 10.938 10.9394 4 19.5009 4C28.0624 4 35 10.9398 35 19.5018V19.5Z" fill="white"/>
<path d="M16.8283 13.3547C16.8283 13.3547 16.8319 13.3564 16.8337 13.3564C16.7294 12.913 16.8792 12.3384 16.5743 11.9729C16.5172 11.9248 16.4557 11.8793 16.3906 11.8391C16.9255 12.1697 16.7205 12.8439 16.8283 13.3547Z" fill="#595844"/>
<path d="M15.9208 11.2427C15.9172 11.5846 15.796 11.9405 15.796 12.1111C15.796 12.1146 15.796 12.1181 15.796 12.1216C15.8022 11.944 15.9208 11.5907 15.9208 11.254C15.9208 11.2505 15.9208 11.247 15.9208 11.2435V11.2427Z" fill="#595844"/>
<path d="M15.911 10.6576C16.6705 10.6576 17.283 11.6073 17.2884 12.3865C17.2884 12.3822 17.2884 12.3778 17.2884 12.3734C17.2884 11.5925 16.6741 10.6331 15.911 10.6331C15.8521 10.6331 15.8361 10.6585 15.8406 10.7074C15.8441 10.6742 15.8628 10.6567 15.911 10.6567V10.6576Z" fill="#595844"/>
<path d="M15.8406 10.7083C15.8334 10.7888 15.919 10.9663 15.9208 11.2427C15.9208 11.2383 15.9208 11.2339 15.9208 11.2295C15.9208 10.9724 15.8468 10.7993 15.8397 10.7092L15.8406 10.7083Z" fill="#595844"/>
<path d="M16.8337 13.38C16.8319 13.3713 16.8301 13.3625 16.8283 13.3538C16.2854 13.1964 15.8031 12.6813 15.7978 12.1207C15.7978 12.1251 15.7978 12.1303 15.7978 12.1347C15.7978 12.7014 16.2854 13.2243 16.8346 13.38H16.8337Z" fill="#595844"/>
<path d="M16.3897 11.8146C16.4646 11.861 16.5243 11.9143 16.5734 11.9729C16.9353 12.2807 17.1234 12.7416 17.1751 13.2025C17.2411 12.9427 17.2884 12.6664 17.2884 12.3979C17.2884 12.3944 17.2884 12.39 17.2884 12.3865C17.2866 12.6515 17.2411 12.9235 17.176 13.178C17.1154 12.6437 16.8738 12.1102 16.3897 11.8137V11.8146Z" fill="#595844"/>
<path d="M16.8283 13.3547C16.7205 12.8439 16.9255 12.1688 16.3906 11.8391C16.4566 11.8793 16.5172 11.9248 16.5743 11.9729C16.5252 11.9143 16.4655 11.861 16.3906 11.8146C16.8747 12.1111 17.1163 12.6445 17.1769 13.1789C17.242 12.9235 17.2884 12.6515 17.2892 12.3874C17.2839 11.6082 16.6714 10.6585 15.9119 10.6585C15.8637 10.6585 15.845 10.676 15.8415 10.7092C15.8486 10.7993 15.9226 10.9724 15.9226 11.2295C15.9226 11.2339 15.9226 11.2383 15.9226 11.2427C15.9226 11.2462 15.9226 11.2497 15.9226 11.2532C15.9226 11.5907 15.804 11.9432 15.7978 12.1207C15.804 12.6813 16.2854 13.1964 16.8283 13.3538V13.3547Z" fill="#595844"/>
<path d="M22.2139 13.2418C22.6044 12.8789 23.3247 12.7162 23.3443 12.0857C23.3283 12.6445 22.9815 13.1194 22.5437 13.4412C22.8049 13.366 23.0724 13.2654 23.3086 13.129C23.9951 12.7337 24.5264 11.728 24.1404 11.0826C24.0557 10.9418 23.9728 11.1911 23.6225 11.3931C23.3185 11.568 22.936 11.6458 22.7844 11.7341C22.287 12.021 22.0748 12.6988 22.2148 13.2418H22.2139Z" fill="#595844"/>
<path d="M18.1148 12.3183C17.9828 12.558 17.7573 12.7643 17.6922 12.8842C17.4756 13.2777 17.6146 13.819 17.9365 14.1295C18.0479 13.7281 18.466 13.3293 18.2164 12.8964C18.4384 13.2794 18.4036 13.7386 18.2414 14.1312C18.3867 13.9756 18.524 13.8007 18.6274 13.6144C18.9251 13.0722 18.8645 12.181 18.335 11.9012C18.2191 11.84 18.2663 12.042 18.1139 12.3183H18.1148Z" fill="#595844"/>
<path d="M14.0799 14.9953C14.0567 15.123 14.2376 15.0154 14.5523 15.0705C14.826 15.1177 15.0962 15.2638 15.2326 15.2874C15.681 15.3661 16.1624 15.067 16.3621 14.6699C15.9386 14.6909 15.4216 14.4268 15.081 14.7941C15.3823 14.4671 15.8379 14.3569 16.2694 14.3848C16.0732 14.2983 15.8611 14.2248 15.6489 14.1872C15.0311 14.0788 14.1868 14.4146 14.0807 14.9953H14.0799Z" fill="#595844"/>
<path d="M13.5824 12.7705C13.7464 12.99 13.84 13.2786 13.9221 13.3879C14.1913 13.7482 14.7503 13.8566 15.1737 13.7045C14.8519 13.4334 14.6638 12.892 14.1583 12.9279C14.6067 12.8946 15.0141 13.1238 15.3066 13.4351C15.2254 13.2401 15.1238 13.0424 14.9963 12.8719C14.6246 12.3752 13.7776 12.0472 13.2927 12.3962C13.1866 12.4731 13.3925 12.5169 13.5824 12.7705Z" fill="#595844"/>
<path d="M11.4927 16.3998C11.4749 16.8589 11.893 17.2988 12.3789 17.4448C12.287 17.0242 12.5081 16.4715 12.0321 16.1803C12.4546 16.4374 12.6535 16.8781 12.69 17.3128C12.7578 17.1046 12.8086 16.8825 12.8175 16.6647C12.8425 16.0325 12.3245 15.234 11.6434 15.2078C11.4936 15.2025 11.6452 15.3678 11.6327 15.6905C11.622 15.9704 11.4981 16.2607 11.4927 16.3998Z" fill="#595844"/>
<path d="M10.2945 18.2057C10.439 18.447 10.4951 18.7566 10.5673 18.8773C10.8045 19.2735 11.4 19.4221 11.8885 19.2866C11.5801 18.9814 11.4606 18.3989 10.9008 18.4059C11.3982 18.3981 11.8074 18.6639 12.0784 19.0102C12.0205 18.7995 11.9411 18.5852 11.8288 18.3981C11.5016 17.8524 10.6262 17.4553 10.0387 17.7938C9.91031 17.8681 10.1287 17.9276 10.2954 18.2065L10.2945 18.2057Z" fill="#595844"/>
<path d="M12.4832 20.4725C12.3405 20.3054 12.1756 20.1436 11.9937 20.0203C11.4633 19.6609 10.4978 19.6618 10.1109 20.2118C10.0262 20.3325 10.25 20.2958 10.521 20.4795C10.7555 20.6386 10.9391 20.8966 11.0568 20.9762C11.4419 21.2368 12.0455 21.1266 12.4315 20.8022C12.0205 20.6526 11.663 20.1734 11.1575 20.4112C11.605 20.1987 12.0909 20.2704 12.4841 20.4733L12.4832 20.4725Z" fill="#595844"/>
<path d="M14.1307 20.5722C14.1779 20.3588 14.2064 20.1323 14.1931 19.9154C14.1556 19.284 13.5601 18.538 12.8799 18.5773C12.731 18.5861 12.8977 18.7365 12.9173 19.0592C12.9343 19.3391 12.8398 19.639 12.8487 19.779C12.8763 20.2381 13.3363 20.636 13.8347 20.7339C13.7019 20.3247 13.8659 19.7527 13.364 19.5087C13.8097 19.7239 14.0513 20.1436 14.1307 20.573V20.5722Z" fill="#595844"/>
<path d="M13.7536 22.0501C13.4799 22.6229 13.6403 23.5569 14.2573 23.8403C14.3928 23.9024 14.3188 23.6916 14.4587 23.3995C14.5809 23.1459 14.8091 22.9264 14.8697 22.7996C15.0685 22.3833 14.8581 21.8175 14.4677 21.4983C14.3847 21.9207 13.9631 22.3457 14.2849 22.7952C13.9978 22.3973 13.9898 21.9154 14.128 21.5009C13.9827 21.6671 13.8481 21.8525 13.7536 22.0492V22.0501Z" fill="#595844"/>
<path d="M12.9575 21.535C12.7355 21.5481 12.5055 21.5831 12.2951 21.6539C11.6853 21.8603 11.1138 22.6229 11.3358 23.2552C11.3848 23.3943 11.4874 23.1957 11.7985 23.0899C12.0686 22.999 12.3896 23.0068 12.5233 22.9614C12.9664 22.8118 13.2329 22.2696 13.1946 21.7729C12.8282 22.009 12.2229 22.0081 12.1186 22.5477C12.2095 22.0685 12.5563 21.7274 12.9566 21.5359L12.9575 21.535Z" fill="#595844"/>
<path d="M16.7989 17.2787C16.9531 17.1317 17.1011 16.9656 17.2144 16.7854C17.5451 16.2616 17.538 15.3687 17.0263 15.0582C16.9139 14.99 16.9487 15.1947 16.7811 15.4614C16.6349 15.6931 16.3977 15.8855 16.3246 16.0019C16.0848 16.3814 16.1909 16.9306 16.494 17.2594C16.6304 16.865 17.0708 16.4916 16.848 16.0447C17.0468 16.44 16.9835 16.8965 16.798 17.2787H16.7989Z" fill="#595844"/>
<path d="M16.0563 18.4803C15.7996 18.1672 15.7728 17.6119 15.221 17.5708C15.7104 17.6057 16.0732 17.8891 16.2854 18.2372C16.2613 18.0343 16.2159 17.8279 16.1348 17.6425C15.8976 17.1029 15.0971 16.6569 14.4668 16.9236C14.3286 16.9831 14.5345 17.0565 14.6558 17.3311C14.761 17.5699 14.7681 17.8646 14.8207 17.9835C14.9927 18.3745 15.5553 18.5651 16.0572 18.4803H16.0563Z" fill="#595844"/>
<path d="M18.2093 17.9975C18.0372 18.1488 17.8027 18.2485 17.7163 18.3237C17.4346 18.5712 17.3829 19.0286 17.5406 19.3548C17.7457 19.0732 18.1843 18.8747 18.1183 18.4724C18.1772 18.8292 18.0158 19.1755 17.7751 19.437C17.9329 19.3548 18.0907 19.256 18.2235 19.1388C18.6131 18.7977 18.8271 18.0894 18.5008 17.7317C18.4295 17.653 18.4063 17.8226 18.2084 17.9967L18.2093 17.9975Z" fill="#595844"/>
<path d="M21.4374 13.9047C21.3937 13.4911 21.6362 12.9707 21.2439 12.6559C21.5925 12.934 21.7289 13.3748 21.7227 13.798C21.8002 13.6013 21.8644 13.3896 21.8912 13.1797C21.9687 12.5693 21.5836 11.7595 20.9872 11.686C20.8561 11.6703 20.9747 11.8417 20.9346 12.153C20.9007 12.4233 20.7661 12.6953 20.7492 12.8299C20.693 13.2733 21.022 13.729 21.4365 13.9039L21.4374 13.9047Z" fill="#595844"/>
<path d="M23.1633 15.7736C23.4299 15.2165 23.3184 14.3298 22.7737 14.0788C22.6543 14.0237 22.7131 14.2231 22.5776 14.5073C22.4599 14.7539 22.2469 14.9717 22.188 15.095C21.9946 15.4999 22.164 16.0325 22.5036 16.3246C22.5919 15.9179 22.9868 15.4964 22.7131 15.0784C22.9565 15.4492 22.9476 15.9092 22.8085 16.3097C22.944 16.1462 23.0724 15.9643 23.1642 15.7727L23.1633 15.7736Z" fill="#595844"/>
<path d="M23.8926 16.0412C23.8052 15.945 23.7794 16.1505 23.5413 16.3604C23.3345 16.5423 23.051 16.6613 22.9485 16.7522C22.6088 17.0504 22.5527 17.6066 22.7479 18.0054C22.9913 17.6652 23.5226 17.4282 23.437 16.9385C23.5137 17.3731 23.322 17.7929 23.0341 18.1086C23.224 18.0098 23.4138 17.8917 23.5752 17.7509C24.0423 17.3399 24.2937 16.4811 23.8917 16.0421L23.8926 16.0412Z" fill="#595844"/>
<path d="M26.2488 15.7998C26.5207 15.4806 27.0708 15.2891 27.0271 14.7941C27.0663 15.2331 26.839 15.6363 26.5252 15.9266C26.7231 15.8444 26.9228 15.7421 27.0957 15.6144C27.5968 15.2436 27.9204 14.4085 27.5575 13.9371C27.4782 13.8339 27.4354 14.0368 27.1795 14.2257C26.9575 14.3901 26.6651 14.4854 26.5555 14.5668C26.1917 14.8361 26.0883 15.3853 26.2488 15.799V15.7998Z" fill="#595844"/>
<path d="M27.2651 18.8834C27.5771 18.6018 28.1477 18.4829 28.1718 17.987C28.1522 18.4278 27.8722 18.7977 27.5228 19.0452C27.7296 18.9893 27.9418 18.9132 28.1299 18.8091C28.6764 18.5065 29.1087 17.7203 28.8128 17.2061C28.7477 17.0933 28.6781 17.2892 28.4 17.444C28.1584 17.5778 27.8553 17.6346 27.7349 17.7019C27.3382 17.9223 27.1617 18.4532 27.2651 18.8834Z" fill="#595844"/>
<path d="M28.3492 19.5883C28.3563 19.4589 28.1896 19.5866 27.8704 19.5673C27.5932 19.5516 27.3079 19.437 27.1697 19.4291C26.7142 19.4029 26.272 19.7545 26.1204 20.1716C26.5385 20.1017 27.0841 20.3054 27.3783 19.9014C27.1171 20.2608 26.6776 20.4226 26.247 20.4436C26.4521 20.5066 26.6714 20.5564 26.8871 20.5687C27.5138 20.6054 28.3126 20.176 28.3483 19.5874L28.3492 19.5883Z" fill="#595844"/>
<path d="M25.4589 20.0028C25.631 19.8769 25.8004 19.7309 25.9368 19.5664C26.3335 19.0889 26.4449 18.203 25.9796 17.8296C25.877 17.7483 25.8851 17.9556 25.6827 18.1987C25.5071 18.4094 25.2468 18.5703 25.1585 18.6753C24.8705 19.0216 24.9035 19.5796 25.1585 19.9442C25.3448 19.5708 25.8334 19.256 25.6702 18.7855C25.8155 19.2026 25.6916 19.6478 25.458 20.0028H25.4589Z" fill="#595844"/>
<path d="M25.2922 16.2642C25.4117 16.607 25.3101 16.9726 25.1175 17.2647C25.2592 17.1606 25.3983 17.0408 25.5106 16.9061C25.8369 16.5135 25.9288 15.785 25.5454 15.478C25.4607 15.4115 25.4679 15.5812 25.3011 15.7815C25.1567 15.9546 24.9428 16.0876 24.8706 16.1733C24.6334 16.4584 24.6602 16.9166 24.8706 17.2166C25.0239 16.9096 25.4251 16.6508 25.2913 16.2642H25.2922Z" fill="#595844"/>
<path d="M24.6824 21.3085C24.7671 21.5018 24.8714 21.6977 25.0016 21.8673C25.3805 22.3579 26.2319 22.6745 26.7115 22.3186C26.8158 22.2399 26.609 22.1988 26.4164 21.9487C26.2488 21.7318 26.1507 21.4449 26.0678 21.3365C25.7924 20.9797 25.2325 20.8791 24.8108 21.0374C25.1371 21.3041 25.3332 21.8428 25.8378 21.7991C25.3903 21.8385 24.9793 21.6163 24.6824 21.3094V21.3085Z" fill="#595844"/>
<path d="M25.3814 12.6611C25.2494 13.0827 24.8848 13.3721 24.4819 13.5252C24.6967 13.5217 24.9214 13.5007 25.13 13.4465C25.7362 13.2873 26.3558 12.6332 26.2007 12.063C26.1668 11.9379 26.0491 12.1102 25.7398 12.1915C25.4714 12.2624 25.1639 12.2422 25.0301 12.2772C24.5897 12.3927 24.2831 12.8632 24.2741 13.3057C24.6486 13.1107 25.2307 13.1351 25.3814 12.6603V12.6611Z" fill="#595844"/>
<path d="M23.8328 15.778C24.0236 15.68 24.2144 15.562 24.3749 15.4212C24.8429 15.011 25.0961 14.1531 24.6958 13.7123C24.6084 13.6161 24.5826 13.8217 24.3437 14.0307C24.136 14.2126 23.8525 14.3306 23.749 14.4207C23.4094 14.718 23.3514 15.2742 23.5458 15.673C23.7901 15.3337 24.3223 15.0985 24.2385 14.6079C24.3143 15.0425 24.1208 15.4623 23.832 15.7771L23.8328 15.778Z" fill="#595844"/>
<path d="M19.7409 12.2405C19.8416 11.8793 20.2178 11.5199 19.9932 11.1298C20.1937 11.4753 20.1617 11.8889 20.0154 12.2431C20.1456 12.1023 20.2704 11.9449 20.3631 11.777C20.6315 11.289 20.5771 10.4853 20.1001 10.2335C19.9958 10.1784 20.0377 10.3603 19.9013 10.6095C19.7828 10.8255 19.5795 11.0109 19.5207 11.1194C19.3254 11.4735 19.4511 11.9624 19.7409 12.2414V12.2405Z" fill="#595844"/>
<path d="M22.8139 10.4416C22.8424 10.8378 22.632 11.1972 22.3449 11.4552C22.5241 11.3835 22.706 11.2943 22.8629 11.1823C23.3193 10.8552 23.6233 10.1084 23.3051 9.67813C23.2346 9.58368 23.1936 9.76645 22.9601 9.93261C22.7577 10.0769 22.4929 10.1582 22.3922 10.2308C22.0605 10.4678 21.958 10.9611 22.0971 11.3362C22.3467 11.0529 22.8451 10.8885 22.813 10.4407L22.8139 10.4416Z" fill="#595844"/>
<path d="M19.2291 9.76383C19.3049 10.1163 19.1614 10.4652 18.9358 10.7311C19.0874 10.6454 19.2398 10.543 19.3664 10.4232C19.7346 10.0743 19.9138 9.36592 19.5724 9.01873C19.4975 8.94264 19.4832 9.11143 19.2951 9.28983C19.132 9.44463 18.9037 9.54957 18.8226 9.62653C18.5552 9.87927 18.5258 10.3349 18.6978 10.655C18.8859 10.3699 19.3121 10.1617 19.2274 9.76383H19.2291Z" fill="#595844"/>
<path d="M17.3097 10.9925C17.4248 11.3389 17.8304 11.5636 18.1986 11.5514C18.0194 11.261 18.014 10.794 17.6129 10.6943C17.9695 10.7818 18.2262 11.0608 18.3715 11.3756C18.359 11.2042 18.3314 11.0249 18.277 10.8605C18.1183 10.383 17.5469 9.916 17.0797 10.0647C16.9772 10.097 17.1261 10.1836 17.2072 10.4276C17.2777 10.6392 17.2741 10.8859 17.3097 10.9917V10.9925Z" fill="#595844"/>
<path d="M12.2229 13.9161C12.3708 14.0849 12.4645 14.314 12.5384 14.398C12.78 14.6752 13.2427 14.7294 13.5779 14.5799C13.2989 14.3787 13.1117 13.9493 12.7016 14.0088C13.0644 13.9546 13.4112 14.1164 13.6689 14.3525C13.5904 14.1986 13.495 14.0438 13.38 13.9126C13.0466 13.5313 12.3361 13.3153 11.9625 13.6293C11.8814 13.6983 12.0526 13.722 12.222 13.9161H12.2229Z" fill="#595844"/>
<path d="M20.9934 10.1976C21.0888 10.4836 21.4231 10.669 21.7271 10.6593C21.5791 10.4197 21.5747 10.0341 21.2439 9.95185C21.5381 10.0236 21.7494 10.2544 21.8698 10.5142C21.86 10.3725 21.8368 10.2247 21.7922 10.0892C21.6612 9.69474 21.1896 9.30907 20.8044 9.43238C20.7197 9.45949 20.8419 9.53033 20.9096 9.73147C20.9676 9.90638 20.9649 10.1101 20.9943 10.1967L20.9934 10.1976Z" fill="#595844"/>
<path d="M14.1102 11.4735C14.2688 11.5724 14.3981 11.7315 14.4775 11.7805C14.736 11.9423 15.114 11.8767 15.3431 11.6799C15.073 11.5864 14.8198 11.2916 14.5113 11.4351C14.785 11.3074 15.0979 11.3529 15.3592 11.4788C15.2602 11.3756 15.147 11.2759 15.0239 11.1989C14.6673 10.9768 14.054 10.9733 13.8356 11.3082C13.7874 11.3817 13.9283 11.3607 14.1102 11.4735Z" fill="#595844"/>
<path d="M14.7387 16.238C14.7636 16.2231 14.7886 16.2074 14.8109 16.1899C14.6103 16.1077 14.4258 15.9092 14.2091 15.8742C14.1369 15.8768 14.0647 15.8873 13.9943 15.91C14.3001 15.8156 14.5042 16.0981 14.7387 16.238Z" fill="#595844"/>
<path d="M14.5345 15.7447C14.6014 15.8016 14.6638 15.8654 14.7217 15.9328C14.7618 15.9503 14.802 15.9695 14.8394 15.9905C14.7458 15.882 14.6388 15.7762 14.5211 15.6923C14.3268 15.555 14.0469 15.4833 13.7972 15.5051C14.0558 15.4938 14.3437 15.5873 14.5336 15.7447H14.5345Z" fill="#595844"/>
<path d="M13.5913 15.896C13.462 15.7885 13.3461 15.7666 13.331 15.7299C13.331 15.7308 13.3292 15.7316 13.3283 15.7325C13.2766 15.8033 13.4175 15.7893 13.5931 15.9135C13.6305 15.9398 13.6662 15.9704 13.6992 16.001C13.6653 15.9643 13.6296 15.9275 13.5913 15.896Z" fill="#595844"/>
<path d="M20.3132 13.7045C20.3569 13.5925 20.3926 13.4718 20.4068 13.3529C20.4478 13.0057 20.2258 12.5483 19.8871 12.509C19.8131 12.5002 19.8808 12.5973 19.8594 12.774C19.8407 12.9279 19.7658 13.0827 19.7569 13.1588C19.7266 13.4106 19.9156 13.6677 20.1518 13.7657C20.1251 13.5313 20.2606 13.2348 20.0368 13.0582C20.2356 13.2147 20.315 13.4648 20.3132 13.7045Z" fill="#595844"/>
<path d="M21.646 19.2114C21.6237 19.0715 21.5881 18.9254 21.531 18.7942C21.3661 18.4121 20.8624 18.0684 20.4888 18.2232C20.4068 18.2573 20.5352 18.3185 20.6199 18.5126C20.693 18.6814 20.7081 18.8852 20.7447 18.9691C20.8642 19.2464 21.2136 19.4029 21.5158 19.3679C21.3473 19.1414 21.309 18.7575 20.972 18.7033C21.2707 18.7505 21.5025 18.9621 21.6451 19.2114H21.646Z" fill="#595844"/>
<path d="M21.5185 17.4527C21.564 17.318 21.5996 17.1729 21.6103 17.0303C21.6406 16.6166 21.3518 16.0849 20.948 16.0561C20.8588 16.05 20.9453 16.161 20.9301 16.3727C20.9159 16.5554 20.8356 16.7435 20.8294 16.8344C20.8071 17.1352 21.0451 17.43 21.3304 17.534C21.2849 17.2568 21.4303 16.8982 21.1557 16.6997C21.3999 16.8746 21.5078 17.1676 21.5185 17.4527Z" fill="#595844"/>
<path d="M18.4206 21.3277C18.5124 21.2184 18.5997 21.0951 18.6622 20.9666C18.8431 20.5914 18.77 19.9941 18.4045 19.8236C18.3243 19.7859 18.3635 19.9206 18.2708 20.1121C18.1906 20.2774 18.0452 20.4244 18.006 20.5066C17.8741 20.7794 17.9873 21.1388 18.2146 21.3365C18.2752 21.0628 18.5427 20.7794 18.3599 20.4969C18.5222 20.7471 18.5151 21.0584 18.4197 21.3277H18.4206Z" fill="#595844"/>
<path d="M14.1645 17.6399C14.0504 17.2402 13.5967 16.8362 13.2062 16.9428C13.1206 16.9665 13.2401 17.0425 13.298 17.2463C13.3488 17.423 13.3363 17.6267 13.3622 17.7142C13.4442 18.0045 13.7696 18.2039 14.0745 18.2065C13.9372 17.9608 13.9506 17.5751 13.6234 17.4789C13.914 17.5638 14.1155 17.8034 14.2234 18.0675C14.2198 17.9258 14.2029 17.7772 14.1645 17.6399Z" fill="#595844"/>
<path d="M13.7981 15.5042C13.6172 15.5121 13.4505 15.5707 13.3426 15.6949C13.3301 15.7089 13.3274 15.7203 13.3319 15.7299C13.4353 15.5917 13.6074 15.5209 13.7981 15.5042Z" fill="#595844"/>
<path d="M13.996 15.8978C14.0709 15.8681 14.1423 15.8628 14.2091 15.8742C14.4284 15.8672 14.646 15.9468 14.8278 16.0666C14.7948 16.0211 14.7583 15.9765 14.7208 15.9328C14.4926 15.8348 14.2332 15.8033 13.9952 15.8978H13.996Z" fill="#595844"/>
<path d="M14.7841 16.2633C14.769 16.2555 14.7538 16.2467 14.7387 16.238C14.4997 16.3797 14.1663 16.3998 13.9417 16.2406C13.8846 16.2004 13.8017 16.0963 13.6992 16.001C13.7892 16.1007 13.8605 16.2047 13.9122 16.2476C14.1467 16.4426 14.5301 16.4278 14.7841 16.2633Z" fill="#595844"/>
<path d="M13.9417 16.2415C14.1672 16.4006 14.4997 16.3797 14.7387 16.2389C14.5042 16.0981 14.3001 15.8165 13.9943 15.9109C14.0656 15.889 14.1378 15.8777 14.2091 15.875C14.1414 15.8646 14.0709 15.8689 13.996 15.8987C14.2341 15.8033 14.4935 15.8357 14.7217 15.9336C14.6638 15.8663 14.6014 15.8016 14.5345 15.7456C14.3446 15.5882 14.0567 15.4946 13.7981 15.506C13.6074 15.5226 13.4353 15.5934 13.3319 15.7316C13.347 15.7684 13.4629 15.7893 13.5922 15.8978C13.6305 15.9301 13.6662 15.966 13.7001 16.0027C13.8026 16.0981 13.8846 16.2021 13.9426 16.2424L13.9417 16.2415Z" fill="#595844"/>
<path d="M15.4697 22.3859C15.3119 22.7707 15.4207 23.3628 15.7951 23.5123C15.878 23.5447 15.8299 23.4135 15.9119 23.2167C15.9823 23.0471 16.1178 22.8923 16.1517 22.8075C16.2667 22.5285 16.1339 22.1752 15.894 21.9906C15.8504 22.2679 15.5999 22.5652 15.7996 22.8372C15.6221 22.5967 15.6114 22.2854 15.6899 22.0116C15.6052 22.1262 15.5259 22.2539 15.4706 22.3859H15.4697Z" fill="#595844"/>
<path d="M24.4507 18.8633C24.5469 18.7566 24.637 18.6368 24.7038 18.51C24.8973 18.141 24.8447 17.541 24.4836 17.3591C24.4043 17.3198 24.44 17.4544 24.341 17.6433C24.2554 17.8069 24.1065 17.9486 24.0637 18.0299C23.9238 18.2975 24.0245 18.6613 24.2456 18.8659C24.3151 18.594 24.5915 18.3194 24.4177 18.0316C24.5728 18.287 24.5541 18.5975 24.4507 18.8633Z" fill="#595844"/>
<path d="M22.5402 21.5271C22.4252 21.6128 22.3111 21.7125 22.2201 21.8236C21.9562 22.1481 21.8867 22.7462 22.2023 22.9946C22.2718 23.0488 22.2647 22.9098 22.3993 22.7445C22.517 22.6011 22.6917 22.4909 22.7497 22.42C22.9413 22.1848 22.9155 21.8096 22.7399 21.5647C22.6168 21.8175 22.2906 22.0326 22.402 22.3492C22.3021 22.0685 22.3824 21.7685 22.5384 21.5271H22.5402Z" fill="#595844"/>
<path d="M26.9905 17.6547C27.102 17.5638 27.2098 17.4579 27.2945 17.3425C27.5424 17.0058 27.5816 16.405 27.2535 16.1724C27.1813 16.1217 27.1947 16.2607 27.069 16.4321C26.9593 16.5808 26.7899 16.6989 26.7356 16.7732C26.5564 17.0172 26.6001 17.3915 26.7873 17.6267C26.8978 17.3679 27.2125 17.1379 27.085 16.8265C27.1991 17.102 27.1341 17.4055 26.9905 17.6538V17.6547Z" fill="#595844"/>
<path d="M24.4471 21.939C24.4649 21.5962 24.1868 21.2657 23.8587 21.1537C23.9158 21.4677 23.7597 21.8796 24.078 22.0991C23.7954 21.9049 23.6661 21.5744 23.6474 21.2499C23.5993 21.4047 23.5618 21.5709 23.5529 21.7327C23.528 22.2049 23.8685 22.804 24.3294 22.8276C24.4301 22.8328 24.3294 22.7078 24.3428 22.4673C24.3544 22.2582 24.4417 22.0431 24.448 21.939H24.4471Z" fill="#595844"/>
<path d="M25.9653 13.6336C25.8209 13.7499 25.6265 13.8225 25.5543 13.8802C25.3172 14.0718 25.2628 14.4443 25.3832 14.7189C25.557 14.4959 25.9216 14.3516 25.8779 14.0193C25.9172 14.314 25.7754 14.5912 25.5722 14.7959C25.7032 14.7355 25.8351 14.6603 25.9475 14.5702C26.2738 14.307 26.4681 13.7351 26.2105 13.4281C26.1543 13.3608 26.1311 13.4989 25.9644 13.6328L25.9653 13.6336Z" fill="#595844"/>
<path d="M21.1289 28.5925C20.0003 26.9029 20.3177 24.9037 20.4122 24.3912C20.9061 21.7195 23.2097 20.6063 24.0423 20.5678C24.8171 20.5319 25.3332 20.6815 25.8325 20.8914C26.6357 21.2289 25.2129 20.2258 23.9336 20.2258C21.0335 20.2258 22.542 21.5455 22.542 18.7112C22.542 17.7737 22.2513 16.83 21.6612 16.0736C21.9099 16.6595 22.1461 17.2918 22.1033 17.9311C22.0044 19.4116 20.0805 24.0204 20.3061 18.3255C20.3836 16.3814 20.9381 14.5055 23.0243 13.6966C21.3206 13.7709 19.8817 15.3302 19.4279 16.8528C18.8217 15.3302 17.5727 14.328 16.2863 13.3993C18.1495 15.708 19.3388 16.8012 19.345 20.0964C19.3531 24.7813 17.2955 21.5621 17.2955 19.374C17.2955 18.5432 17.5041 17.7028 17.8759 17.0006C17.1885 17.5646 16.5431 18.4986 16.552 19.7134C16.5743 22.6063 17.8883 20.643 14.3099 20.9097C9.27913 21.2849 18.1567 20.4987 18.4571 24.5784C18.474 24.8119 18.9323 26.9011 17.9498 29C18.0934 29 18.5917 28.5916 19.1783 28.4989C20.1572 28.3441 20.5156 28.5811 21.1289 28.5916V28.5925Z" fill="#595844"/>
<defs>
<linearGradient id="paint0_linear_26_544" x1="19.4047" y1="6.01704" x2="19.4047" y2="55.113" gradientUnits="userSpaceOnUse">
<stop stop-color="#5A5844"/>
<stop offset="1" stop-color="#390000"/>
</linearGradient>
</defs>
</svg>
