<svg width="50" height="50" viewBox="0 0 50 50" fill="none" xmlns="http://www.w3.org/2000/svg">
<path fill-rule="evenodd" clip-rule="evenodd" d="M24.9997 2.26955e-08C25.813 -0.000126692 26.5312 0.53037 26.7701 1.30774C27.5752 3.92675 28.2156 6.15368 28.7581 8.04869C28.788 8.15285 28.8175 8.25592 28.8467 8.35793C29.3515 10.1216 29.7649 11.5657 30.1542 12.7852C30.9895 15.4011 31.6262 16.6677 32.4819 17.5234C33.3375 18.379 34.6036 19.0153 37.2185 19.8496C38.4375 20.2386 39.8809 20.6514 41.6439 21.1556C41.7459 21.1848 41.849 21.2143 41.9532 21.2441C43.8476 21.786 46.0737 22.4256 48.6919 23.2298C49.4692 23.4685 49.9999 24.1865 50 24.9997C50.0001 25.8129 49.4697 26.5311 48.6924 26.7701C46.0743 27.5751 43.8481 28.2155 41.9538 28.7581C41.8497 28.7879 41.7467 28.8174 41.6448 28.8466C39.8816 29.3515 38.4381 29.7648 37.219 30.1542C34.6041 30.9894 33.3377 31.6261 32.4819 32.4819C31.6261 33.3377 30.9894 34.6041 30.1542 37.219C29.7648 38.4381 29.3515 39.8816 28.8466 41.6448C28.8174 41.7467 28.7879 41.8497 28.7581 41.9538C28.2155 43.8481 27.5751 46.0743 26.7701 48.6924C26.5311 49.4697 25.8129 50.0001 24.9997 50C24.1865 49.9999 23.4685 49.4692 23.2298 48.6919C22.4256 46.0737 21.786 43.8476 21.2441 41.9532C21.2143 41.849 21.1848 41.7459 21.1556 41.6439C20.6514 39.8809 20.2386 38.4375 19.8496 37.2185C19.0153 34.6036 18.379 33.3375 17.5234 32.4819C16.6677 31.6262 15.4011 30.9895 12.7852 30.1542C11.5657 29.7649 10.1216 29.3515 8.35793 28.8467C8.25592 28.8175 8.15285 28.788 8.04869 28.7581C6.15368 28.2156 3.92675 27.5752 1.30774 26.7701C0.53037 26.5312 -0.000126692 25.813 2.26955e-08 24.9997C0.000126738 24.1864 0.530847 23.4684 1.30829 23.2297C3.92731 22.4256 6.15426 21.7859 8.04927 21.244C8.1535 21.2142 8.25665 21.1847 8.35872 21.1555C10.1223 20.6513 11.5663 20.2385 12.7857 19.8496C15.4016 19.0153 16.6679 18.3789 17.5234 17.5234C18.3789 16.6679 19.0153 15.4016 19.8496 12.7857C20.2385 11.5663 20.6513 10.1223 21.1555 8.35872C21.1847 8.25665 21.2142 8.1535 21.244 8.04927C21.7859 6.15426 22.4256 3.92731 23.2297 1.30829C23.4684 0.530847 24.1864 0.000126738 24.9997 2.26955e-08ZM25.001 8.38268C24.9343 8.61538 24.869 8.84364 24.805 9.06761C24.7728 9.18019 24.7409 9.29179 24.7092 9.40241C24.2125 11.14 23.7849 12.636 23.3781 13.9111C22.5244 16.588 21.6744 18.6103 20.1423 20.1423C18.6103 21.6744 16.588 22.5244 13.9111 23.3781C12.636 23.7849 11.14 24.2125 9.40241 24.7092C9.29179 24.7409 9.18019 24.7728 9.06761 24.805C8.84364 24.869 8.61538 24.9343 8.38268 25.001C8.61558 25.0679 8.84404 25.1333 9.06818 25.1975C9.18069 25.2297 9.29222 25.2617 9.40277 25.2933C11.1405 25.7907 12.6365 26.2189 13.9117 26.626C16.5885 27.4807 18.6105 28.3312 20.1423 29.863C21.6743 31.3949 22.5243 33.4166 23.3781 36.0927C23.7848 37.3675 24.2125 38.863 24.7093 40.6C24.7409 40.7106 24.7727 40.8221 24.8049 40.9346C24.869 41.1585 24.9343 41.3867 25.001 41.6194C25.0679 41.3865 25.1334 41.1581 25.1976 40.934C25.2298 40.8214 25.2617 40.7099 25.2934 40.5993C25.7908 38.8623 26.2189 37.3669 26.6261 36.0922C27.4808 33.4161 28.3313 31.3947 29.863 29.863C31.3947 28.3313 33.4161 27.4808 36.0922 26.6261C37.3669 26.2189 38.8623 25.7908 40.5993 25.2934C40.7099 25.2617 40.8214 25.2298 40.934 25.1976C41.1581 25.1334 41.3865 25.0679 41.6194 25.001C41.3867 24.9343 41.1585 24.869 40.9346 24.8049C40.8221 24.7727 40.7106 24.7409 40.6 24.7093C38.863 24.2125 37.3675 23.7848 36.0927 23.3781C33.4166 22.5243 31.3949 21.6743 29.863 20.1423C28.3312 18.6105 27.4807 16.5885 26.626 13.9117C26.2189 12.6365 25.7907 11.1405 25.2933 9.40277C25.2617 9.29222 25.2297 9.18069 25.1975 9.06818C25.1333 8.84404 25.0679 8.61558 25.001 8.38268ZM19.7791 2.84532C20.0949 3.8181 19.5623 4.86269 18.5895 5.17849C15.4541 6.19638 12.6043 7.94226 10.2733 10.2733C7.94226 12.6043 6.19638 15.4541 5.17849 18.5895C4.86269 19.5623 3.8181 20.0949 2.84532 19.7791C1.87255 19.4633 1.33997 18.4187 1.65577 17.4459C2.85423 13.7543 4.90983 10.3989 7.65434 7.65434C10.3989 4.90983 13.7543 2.85423 17.4459 1.65577C18.4187 1.33997 19.4633 1.87255 19.7791 2.84532ZM30.2221 2.84774C30.5379 1.87496 31.5824 1.34235 32.5552 1.65812C36.2465 2.85632 39.6016 4.91157 42.3459 7.65565C45.0902 10.3997 47.1457 13.7547 48.3442 17.4458C48.6601 18.4186 48.1275 19.4632 47.1548 19.7791C46.182 20.0949 45.1374 19.5624 44.8215 18.5896C43.8036 15.4546 42.0578 12.6053 39.7271 10.2747C37.3963 7.94408 34.5468 6.19853 31.4117 5.18087C30.4389 4.8651 29.9063 3.82053 30.2221 2.84774ZM2.84785 30.2209C3.82065 29.9052 4.8652 30.4378 5.18091 31.4106C6.19841 34.5459 7.9439 37.3956 10.2745 39.7266C12.6051 42.0576 15.4546 43.8035 18.5897 44.8216C19.5624 45.1374 20.0949 46.182 19.779 47.1548C19.4632 48.1276 18.4185 48.6601 17.4458 48.3442C13.7545 47.1456 10.3995 45.0899 7.65537 42.3453C4.91128 39.6008 2.85611 36.2454 1.65808 32.5539C1.34237 31.5811 1.87505 30.5366 2.84785 30.2209ZM47.1523 30.2221C48.1251 30.5379 48.6577 31.5825 48.3419 32.5553C47.1436 36.2461 45.0884 39.6007 42.3446 42.3446C39.6007 45.0884 36.2461 47.1436 32.5553 48.3419C31.5825 48.6577 30.5379 48.1251 30.2221 47.1523C29.9063 46.1796 30.4389 45.135 31.4116 44.8192C34.5462 43.8015 37.3953 42.056 39.7257 39.7257C42.056 37.3953 43.8015 34.5462 44.8192 31.4116C45.135 30.4389 46.1796 29.9063 47.1523 30.2221Z" fill="#77975D"/>
</svg>
