<svg width="36" height="38" viewBox="0 0 36 38" fill="none" xmlns="http://www.w3.org/2000/svg">
<g clip-path="url(#clip0_9_273)">
<path d="M13.0025 8.27293C13.0025 8.27293 13.0093 8.27625 13.0127 8.27625C12.8141 7.43384 13.0992 6.34219 12.5188 5.64765C12.4101 5.55627 12.293 5.46986 12.1691 5.39343C13.1875 6.0215 12.7971 7.30257 13.0025 8.27293Z" fill="#ACD08D"/>
<path d="M11.2747 4.26025C11.2679 4.90993 11.0371 5.58618 11.0371 5.91019C11.0371 5.91683 11.0371 5.92348 11.0371 5.93013C11.049 5.59283 11.2747 4.92156 11.2747 4.28185C11.2747 4.27521 11.2747 4.26856 11.2747 4.26192V4.26025Z" fill="#ACD08D"/>
<path d="M11.256 3.14867C12.7021 3.14867 13.8681 4.95313 13.8782 6.43358C13.8782 6.42527 13.8782 6.41697 13.8782 6.40866C13.8782 4.92488 12.7089 3.10214 11.256 3.10214C11.144 3.10214 11.1135 3.15033 11.1219 3.24338C11.1287 3.18024 11.1644 3.147 11.256 3.147V3.14867Z" fill="#ACD08D"/>
<path d="M11.1219 3.24503C11.1084 3.39789 11.2713 3.73519 11.2747 4.26024C11.2747 4.25193 11.2747 4.24363 11.2747 4.23532C11.2747 3.74682 11.1338 3.41783 11.1202 3.24669L11.1219 3.24503Z" fill="#ACD08D"/>
<path d="M13.0127 8.32112C13.0093 8.30451 13.0059 8.28789 13.0025 8.27127C11.9689 7.97219 11.0507 6.99353 11.0405 5.92847C11.0405 5.93677 11.0405 5.94674 11.0405 5.95505C11.0405 7.03175 11.9689 8.02536 13.0144 8.32112H13.0127Z" fill="#ACD08D"/>
<path d="M12.1675 5.34691C12.31 5.43497 12.4238 5.53633 12.5171 5.64765C13.2062 6.23252 13.5643 7.10817 13.6627 7.98381C13.7883 7.49033 13.8783 6.96527 13.8783 6.45517C13.8783 6.44852 13.8783 6.44022 13.8783 6.43357C13.8749 6.93703 13.7883 7.45377 13.6644 7.93729C13.549 6.92207 13.0891 5.90852 12.1675 5.34525V5.34691Z" fill="#ACD08D"/>
<path d="M13.0025 8.27294C12.7972 7.30258 13.1875 6.01985 12.1692 5.39344C12.2948 5.46987 12.4102 5.55628 12.5188 5.64766C12.4255 5.53634 12.3118 5.43498 12.1692 5.34692C13.0908 5.91019 13.5507 6.92374 13.6661 7.93896C13.79 7.45378 13.8783 6.93704 13.88 6.43524C13.8698 4.95479 12.7038 3.15033 11.2578 3.15033C11.1661 3.15033 11.1305 3.18356 11.1237 3.2467C11.1373 3.41784 11.2781 3.74683 11.2781 4.23533C11.2781 4.24364 11.2781 4.25195 11.2781 4.26026C11.2781 4.2669 11.2781 4.27355 11.2781 4.28019C11.2781 4.92156 11.0524 5.59117 11.0405 5.92847C11.0524 6.99353 11.9689 7.97219 13.0025 8.27127V8.27294Z" fill="#ACD08D"/>
<path d="M23.2555 8.05859C23.9989 7.36904 25.3702 7.05998 25.4076 5.862C25.377 6.92374 24.7168 7.82597 23.8834 8.43742C24.3807 8.29453 24.8899 8.10345 25.3397 7.84424C26.6465 7.09322 27.6581 5.18242 26.9232 3.95618C26.7619 3.68867 26.6041 4.16221 25.9371 4.54604C25.3583 4.87835 24.6302 5.02623 24.3417 5.19405C23.3946 5.73904 22.9907 7.02675 23.2572 8.05859H23.2555Z" fill="#ACD08D"/>
<path d="M15.4516 6.30397C15.2004 6.75923 14.771 7.15136 14.6471 7.379C14.2347 8.1267 14.4995 9.15521 15.1122 9.74507C15.3243 8.98241 16.1203 8.22474 15.6451 7.40226C16.0677 8.13003 16.0015 9.00235 15.6926 9.74839C15.9693 9.45263 16.2307 9.12032 16.4275 8.76641C16.9944 7.73623 16.879 6.0431 15.8708 5.5114C15.6502 5.39509 15.7402 5.77891 15.4499 6.30397H15.4516Z" fill="#ACD08D"/>
<path d="M7.76996 11.39C7.72583 11.6326 8.07037 11.4283 8.66949 11.5329C9.19054 11.6227 9.7048 11.9001 9.96448 11.945C10.8182 12.0945 11.7347 11.5263 12.1149 10.7719C11.3087 10.8118 10.3243 10.31 9.67595 11.0079C10.2496 10.3865 11.1169 10.1771 11.9384 10.2303C11.565 10.0658 11.161 9.9262 10.7571 9.85475C9.5809 9.64872 7.97363 10.2868 7.77165 11.39H7.76996Z" fill="#ACD08D"/>
<path d="M6.82286 7.163C7.13515 7.58005 7.31336 8.12837 7.46951 8.33606C7.98207 9.02063 9.04624 9.22666 9.85242 8.93755C9.23972 8.42247 8.88161 7.39396 7.91928 7.46208C8.77298 7.39894 9.54862 7.83427 10.1053 8.42579C9.95086 8.05526 9.75738 7.67975 9.51467 7.35574C8.80693 6.41197 7.19456 5.78889 6.27126 6.45185C6.06929 6.59807 6.46135 6.68115 6.82286 7.163Z" fill="#ACD08D"/>
<path d="M2.84455 14.0585C2.81061 14.9308 3.60661 15.7666 4.5316 16.0441C4.35679 15.2448 4.7777 14.1947 3.87138 13.6414C4.67587 14.1299 5.05435 14.9674 5.12394 15.7932C5.25293 15.3977 5.34967 14.9757 5.36664 14.5619C5.41416 13.3606 4.42807 11.8436 3.13139 11.7938C2.84625 11.7838 3.13478 12.0978 3.11102 12.711C3.09065 13.2427 2.85474 13.7943 2.84455 14.0585Z" fill="#ACD08D"/>
<path d="M0.563504 17.4896C0.838456 17.9482 0.945382 18.5364 1.08286 18.7657C1.53432 19.5184 2.66807 19.8009 3.59816 19.5433C3.01091 18.9635 2.78348 17.8569 1.71762 17.8701C2.66468 17.8552 3.44371 18.3603 3.95967 19.0183C3.84935 18.6179 3.69829 18.2108 3.48444 17.8552C2.86156 16.8184 1.19487 16.064 0.0763984 16.7071C-0.168003 16.8483 0.247819 16.9613 0.565201 17.4913L0.563504 17.4896Z" fill="#ACD08D"/>
<path d="M4.73021 21.7964C4.45866 21.4791 4.14467 21.1717 3.79843 20.9374C2.78858 20.2545 0.950476 20.2561 0.213877 21.3013C0.0526399 21.5306 0.478645 21.4608 0.994604 21.8097C1.44098 22.1121 1.79061 22.6023 2.01464 22.7535C2.74784 23.2486 3.89687 23.0393 4.63177 22.4228C3.84935 22.1387 3.16876 21.2282 2.20643 21.6801C3.05844 21.2764 3.98343 21.4126 4.73191 21.7981L4.73021 21.7964Z" fill="#ACD08D"/>
<path d="M7.86666 21.9858C7.95661 21.5804 8.01092 21.1501 7.98546 20.738C7.91418 19.5383 6.78043 18.121 5.48544 18.1958C5.202 18.2124 5.51939 18.4982 5.55673 19.1113C5.58897 19.643 5.40907 20.2129 5.42604 20.4788C5.47865 21.3511 6.35442 22.1071 7.30318 22.2932C7.05029 21.5156 7.36258 20.4289 6.40704 19.9654C7.25565 20.3741 7.7156 21.1717 7.86666 21.9875V21.9858Z" fill="#ACD08D"/>
<path d="M7.14872 24.7939C6.62767 25.8822 6.93317 27.6567 8.10766 28.1951C8.36564 28.3131 8.22477 27.9126 8.49123 27.3577C8.72375 26.8758 9.15825 26.4588 9.27366 26.2178C9.65214 25.4269 9.25159 24.3519 8.50821 23.7454C8.35036 24.548 7.54757 25.3555 8.16027 26.2095C7.61376 25.4535 7.59849 24.538 7.86156 23.7504C7.58491 24.0661 7.32863 24.4184 7.14872 24.7922V24.7939Z" fill="#ACD08D"/>
<path d="M5.63309 23.8152C5.21048 23.8401 4.7726 23.9066 4.37205 24.0412C3.21114 24.4333 2.12322 25.8822 2.54583 27.0835C2.63917 27.3477 2.83436 26.9705 3.42669 26.7695C3.94095 26.5967 4.55195 26.6116 4.80654 26.5252C5.65006 26.2411 6.15754 25.2109 6.08456 24.2672C5.38699 24.7158 4.23457 24.7141 4.036 25.7393C4.20911 24.8288 4.86934 24.1808 5.63139 23.8169L5.63309 23.8152Z" fill="#ACD08D"/>
<path d="M12.9465 15.7284C13.2401 15.4492 13.5218 15.1335 13.7374 14.7913C14.3671 13.796 14.3535 12.0995 13.3793 11.5097C13.1654 11.3801 13.2316 11.7689 12.9125 12.2757C12.6342 12.716 12.1827 13.0815 12.0436 13.3025C11.587 14.0236 11.789 15.0671 12.366 15.6918C12.6257 14.9425 13.4641 14.233 13.0398 13.3839C13.4183 14.1349 13.2978 15.0023 12.9448 15.7284H12.9465Z" fill="#ACD08D"/>
<path d="M11.5327 18.0114C11.0439 17.4165 10.993 16.3614 9.94239 16.2833C10.8742 16.3498 11.5649 16.8882 11.9689 17.5495C11.9231 17.164 11.8365 16.7718 11.682 16.4196C11.2306 15.3944 9.70647 14.547 8.50653 15.0538C8.24346 15.1668 8.63552 15.3063 8.86634 15.8281C9.06661 16.2817 9.08019 16.8416 9.18033 17.0676C9.50789 17.8103 10.5788 18.1725 11.5344 18.0114H11.5327Z" fill="#ACD08D"/>
<path d="M15.6315 17.0942C15.3039 17.3816 14.8576 17.5711 14.6929 17.7139C14.1566 18.1842 14.0582 19.0532 14.3586 19.6729C14.749 19.1379 15.584 18.7607 15.4584 17.9964C15.5704 18.6743 15.2632 19.3323 14.805 19.8291C15.1054 19.6729 15.4058 19.4852 15.6587 19.2625C16.4004 18.6145 16.8077 17.2686 16.1865 16.5891C16.0507 16.4395 16.0066 16.7619 15.6298 17.0925L15.6315 17.0942Z" fill="#ACD08D"/>
<path d="M21.7772 9.31805C21.694 8.53213 22.1557 7.5435 21.4089 6.94534C22.0725 7.47372 22.3322 8.31115 22.3203 9.11534C22.468 8.74149 22.5902 8.33939 22.6411 7.94062C22.7888 6.78084 22.0556 5.24223 20.9201 5.10266C20.6706 5.07275 20.8963 5.39842 20.82 5.98994C20.7555 6.50336 20.4992 7.02011 20.4669 7.27599C20.36 8.1184 20.9863 8.98408 21.7755 9.31639L21.7772 9.31805Z" fill="#ACD08D"/>
<path d="M25.063 12.8688C25.5705 11.8104 25.3583 10.1256 24.3213 9.64872C24.0939 9.54404 24.2059 9.92287 23.9479 10.4629C23.7239 10.9314 23.3182 11.3452 23.2062 11.5795C22.8379 12.3488 23.1604 13.3607 23.8071 13.9156C23.9751 13.143 24.7269 12.3421 24.2059 11.5479C24.6692 12.2524 24.6523 13.1264 24.3875 13.8874C24.6455 13.5767 24.8899 13.2311 25.0647 12.8672L25.063 12.8688Z" fill="#ACD08D"/>
<path d="M26.4514 13.3772C26.285 13.1945 26.2358 13.5849 25.7827 13.9837C25.3889 14.3293 24.8492 14.5553 24.654 14.7281C24.0074 15.2947 23.9004 16.3515 24.2721 17.1091C24.7355 16.4628 25.747 16.0125 25.5841 15.082C25.73 15.9078 25.3651 16.7054 24.8169 17.3052C25.1784 17.1174 25.54 16.8931 25.8472 16.6256C26.7365 15.8447 27.2151 14.213 26.4497 13.3789L26.4514 13.3772Z" fill="#ACD08D"/>
<path d="M30.9371 12.9187C31.4548 12.3122 32.502 11.9483 32.4188 11.0079C32.4935 11.842 32.0607 12.608 31.4633 13.1596C31.8401 13.0034 32.2202 12.809 32.5495 12.5664C33.5033 11.8619 34.1194 10.2751 33.4287 9.37953C33.2776 9.18346 33.1961 9.56895 32.709 9.92785C32.2864 10.2402 31.7297 10.4213 31.521 10.5759C30.8285 11.0876 30.6316 12.1311 30.9371 12.917V12.9187Z" fill="#ACD08D"/>
<path d="M32.872 18.7773C33.466 18.2423 34.5523 18.0163 34.5981 17.0742C34.5607 17.9117 34.0278 18.6145 33.3625 19.0847C33.7563 18.9784 34.1602 18.8338 34.5183 18.6361C35.5587 18.0612 36.3819 16.5675 35.8184 15.5905C35.6945 15.3761 35.5621 15.7483 35.0326 16.0424C34.5726 16.2966 33.9956 16.4046 33.7664 16.5326C33.0112 16.9513 32.6751 17.9599 32.872 18.7773Z" fill="#ACD08D"/>
<path d="M34.9358 20.1166C34.9494 19.8707 34.632 20.1133 34.0244 20.0767C33.4966 20.0468 32.9535 19.8291 32.6904 19.8142C31.8231 19.7643 30.9813 20.4323 30.6927 21.2248C31.4888 21.0919 32.5275 21.4791 33.0875 20.7114C32.5903 21.3943 31.7535 21.7017 30.9338 21.7416C31.3241 21.8612 31.7416 21.9559 32.1524 21.9792C33.3455 22.049 34.8662 21.2332 34.9341 20.1149L34.9358 20.1166Z" fill="#ACD08D"/>
<path d="M29.4334 20.9042C29.7609 20.6649 30.0834 20.3874 30.3431 20.075C31.0984 19.1678 31.3105 17.4847 30.4246 16.7752C30.2294 16.6206 30.2447 17.0144 29.8594 17.4764C29.525 17.8768 29.0294 18.1825 28.8614 18.3819C28.3132 19.0399 28.376 20.1 28.8614 20.7928C29.2161 20.0834 30.1462 19.4852 29.8356 18.5913C30.1123 19.3838 29.8764 20.2296 29.4317 20.9042H29.4334Z" fill="#ACD08D"/>
<path d="M29.116 13.801C29.3435 14.4523 29.15 15.1468 28.7834 15.7018C29.0532 15.5041 29.318 15.2764 29.5319 15.0206C30.1531 14.2745 30.3279 12.8904 29.5981 12.3072C29.4368 12.1809 29.4504 12.5033 29.133 12.8838C28.8581 13.2128 28.4507 13.4653 28.3133 13.6282C27.8618 14.1698 27.9127 15.0405 28.3133 15.6104C28.6052 15.0272 29.3689 14.5354 29.1143 13.801H29.116Z" fill="#ACD08D"/>
<path d="M27.9551 23.3849C28.1164 23.7521 28.315 24.1243 28.5627 24.4466C29.2841 25.3788 30.9049 25.9802 31.818 25.304C32.0166 25.1544 31.6229 25.0763 31.2563 24.6011C30.9372 24.1891 30.7505 23.6441 30.5926 23.438C30.0682 22.7601 29.0023 22.569 28.1995 22.8698C28.8207 23.3766 29.1941 24.4001 30.1548 24.317C29.3027 24.3918 28.5203 23.9697 27.9551 23.3865V23.3849Z" fill="#ACD08D"/>
<path d="M29.2858 6.9553C29.0346 7.75618 28.3404 8.30616 27.5733 8.59693C27.9823 8.59028 28.41 8.55041 28.8071 8.44739C29.9613 8.14498 31.1408 6.90213 30.8455 5.81879C30.781 5.58119 30.557 5.90852 29.968 6.06304C29.4572 6.19763 28.8716 6.15941 28.617 6.22588C27.7786 6.4452 27.1948 7.33913 27.1778 8.17988C27.8906 7.80935 28.9989 7.85587 29.2858 6.95364V6.9553Z" fill="#ACD08D"/>
<path d="M26.3377 12.8771C26.7009 12.691 27.0641 12.4667 27.3696 12.1992C28.2606 11.4199 28.7427 9.78994 27.9806 8.95251C27.8143 8.76974 27.7651 9.16021 27.3102 9.55732C26.9147 9.90293 26.375 10.1272 26.1781 10.2984C25.5315 10.8633 25.4212 11.9201 25.7912 12.6777C26.2562 12.0331 27.2695 11.5861 27.1099 10.654C27.2542 11.4798 26.8859 12.2773 26.336 12.8755L26.3377 12.8771Z" fill="#ACD08D"/>
<path d="M18.5474 6.15609C18.7391 5.46986 19.4554 4.78696 19.0277 4.0459C19.4095 4.70222 19.3484 5.48814 19.0701 6.16107C19.3179 5.89356 19.5555 5.59448 19.732 5.27546C20.2429 4.34831 20.1394 2.82133 19.2313 2.3428C19.0328 2.23812 19.1125 2.58372 18.8529 3.05727C18.6271 3.46768 18.2402 3.81993 18.1281 4.02596C17.7564 4.6989 17.9957 5.62771 18.5474 6.15775V6.15609Z" fill="#ACD08D"/>
<path d="M24.3977 2.73827C24.452 3.49096 24.0515 4.17386 23.505 4.66402C23.8461 4.52777 24.1924 4.35829 24.4911 4.14561C25.3601 3.52419 25.9388 2.10521 25.3329 1.28772C25.1988 1.10827 25.1208 1.45554 24.6761 1.77124C24.2908 2.04539 23.7867 2.19992 23.5949 2.33783C22.9636 2.78811 22.7684 3.72524 23.0332 4.43805C23.5084 3.8997 24.4571 3.58733 24.396 2.7366L24.3977 2.73827Z" fill="#ACD08D"/>
<path d="M17.5732 1.45054C17.7174 2.12015 17.4442 2.78311 17.0148 3.28823C17.3033 3.12539 17.5935 2.93099 17.8345 2.70336C18.5355 2.04039 18.8766 0.694524 18.2266 0.0348825C18.084 -0.109674 18.0569 0.211008 17.6988 0.549968C17.3882 0.844065 16.9537 1.04345 16.7992 1.18967C16.2901 1.66986 16.234 2.53554 16.5616 3.14367C16.9197 2.602 17.731 2.20655 17.5698 1.45054H17.5732Z" fill="#ACD08D"/>
<path d="M13.919 3.78506C14.138 4.44304 14.9102 4.87006 15.6112 4.8468C15.27 4.29516 15.2598 3.40788 14.4961 3.21846C15.175 3.38462 15.6638 3.91466 15.9404 4.51282C15.9167 4.18716 15.8641 3.84653 15.7605 3.53416C15.4584 2.62695 14.3705 1.73967 13.4811 2.02214C13.286 2.08361 13.5694 2.24811 13.7238 2.71169C13.8579 3.11378 13.8511 3.58235 13.919 3.78339V3.78506Z" fill="#ACD08D"/>
<path d="M4.23461 9.33964C4.51635 9.66033 4.69456 10.0957 4.83543 10.2552C5.29538 10.7819 6.17624 10.8849 6.8144 10.6008C6.28317 10.2186 5.92675 9.40278 5.14602 9.51577C5.83679 9.41275 6.49702 9.72014 6.98752 10.1688C6.83816 9.87633 6.65656 9.58223 6.43761 9.333C5.80285 8.60855 4.45015 8.19815 3.73901 8.79465C3.58457 8.92591 3.91043 8.97078 4.23291 9.33964H4.23461Z" fill="#ACD08D"/>
<path d="M20.932 2.2747C21.1136 2.81803 21.75 3.17028 22.3288 3.152C22.047 2.69673 22.0385 1.96398 21.4089 1.8078C21.969 1.94405 22.3712 2.3827 22.6003 2.87618C22.5817 2.60701 22.5375 2.32621 22.4527 2.06866C22.2032 1.3193 21.3053 0.586547 20.5721 0.820828C20.4109 0.872336 20.6434 1.00692 20.7724 1.38908C20.8827 1.7214 20.8776 2.10854 20.9336 2.27304L20.932 2.2747Z" fill="#ACD08D"/>
<path d="M7.82763 4.69892C8.12974 4.88668 8.37584 5.18908 8.52689 5.28213C9.01909 5.58952 9.73871 5.4649 10.1749 5.09105C9.66064 4.91326 9.17863 4.35331 8.59138 4.62581C9.11243 4.38322 9.70816 4.46962 10.2055 4.70889C10.0171 4.51282 9.80151 4.32341 9.56729 4.17719C8.8884 3.75515 7.7207 3.7485 7.30488 4.38488C7.21323 4.52445 7.48139 4.48458 7.82763 4.69892Z" fill="#ACD08D"/>
<path d="M9.02418 13.7511C9.07171 13.7229 9.11923 13.693 9.16166 13.6597C8.77978 13.5035 8.42846 13.1264 8.01603 13.0599C7.87855 13.0649 7.74108 13.0848 7.60699 13.128C8.18915 12.9486 8.57781 13.4853 9.02418 13.7511Z" fill="#ACD08D"/>
<path d="M8.63555 12.814C8.76284 12.922 8.88164 13.0433 8.99196 13.1712C9.06834 13.2045 9.14471 13.241 9.216 13.2809C9.03779 13.0749 8.83412 12.8738 8.61009 12.7143C8.24009 12.4534 7.70716 12.3172 7.23193 12.3587C7.72413 12.3371 8.27234 12.5149 8.63385 12.814H8.63555Z" fill="#ACD08D"/>
<path d="M6.83985 13.1014C6.59375 12.8971 6.37311 12.8555 6.34425 12.7857C6.34425 12.7874 6.34086 12.7891 6.33916 12.7907C6.24072 12.9253 6.50889 12.8987 6.84324 13.1347C6.91452 13.1845 6.98241 13.2427 7.04521 13.3008C6.98072 13.231 6.91283 13.1613 6.83985 13.1014Z" fill="#ACD08D"/>
<path d="M19.637 8.93755C19.7202 8.72487 19.7881 8.49558 19.8152 8.26961C19.8933 7.60996 19.4707 6.74097 18.8257 6.66619C18.6849 6.64958 18.8138 6.83401 18.7731 7.16965C18.7375 7.46208 18.5949 7.75618 18.5779 7.90074C18.5202 8.37927 18.88 8.86777 19.3298 9.05386C19.2789 8.60856 19.5369 8.04529 19.1109 7.70966C19.4893 8.00708 19.6404 8.48229 19.637 8.93755Z" fill="#ACD08D"/>
<path d="M22.1743 19.4004C22.1319 19.1346 22.064 18.8571 21.9554 18.6079C21.6414 17.8818 20.6825 17.2288 19.9713 17.5229C19.8152 17.5877 20.0596 17.704 20.2208 18.0728C20.36 18.3935 20.3889 18.7807 20.4584 18.9402C20.6859 19.4669 21.3512 19.7643 21.9266 19.6979C21.6058 19.2675 21.5328 18.5381 20.8912 18.4351C21.4598 18.5248 21.9011 18.9269 22.1727 19.4004H22.1743Z" fill="#ACD08D"/>
<path d="M21.9317 16.059C22.0182 15.8032 22.0861 15.5273 22.1065 15.2565C22.1642 14.4706 21.6143 13.4603 20.8454 13.4055C20.6757 13.3939 20.8403 13.6049 20.8115 14.007C20.7843 14.3543 20.6316 14.7115 20.6197 14.8843C20.5773 15.4559 21.0304 16.0158 21.5735 16.2136C21.487 15.6868 21.7636 15.0056 21.2409 14.6284C21.7059 14.9607 21.9113 15.5174 21.9317 16.059Z" fill="#ACD08D"/>
<path d="M16.0338 23.4214C16.2086 23.2137 16.3749 22.9795 16.4937 22.7352C16.8383 22.0224 16.6991 20.8875 16.0032 20.5635C15.8505 20.4921 15.9252 20.748 15.7486 21.1119C15.5959 21.4259 15.3192 21.705 15.2446 21.8612C14.9934 22.3796 15.2089 23.0625 15.6417 23.438C15.7571 22.918 16.2663 22.3796 15.9184 21.8429C16.2273 22.3182 16.2137 22.9097 16.0321 23.4214H16.0338Z" fill="#ACD08D"/>
<path d="M7.93115 16.4146C7.7139 15.6553 6.85001 14.8876 6.10662 15.0903C5.94369 15.1352 6.17111 15.2798 6.28144 15.6669C6.37818 16.0025 6.35442 16.3897 6.40364 16.5558C6.55978 17.1075 7.17927 17.4863 7.75973 17.4913C7.49835 17.0244 7.52381 16.2917 6.90093 16.1089C7.45422 16.2701 7.8378 16.7253 8.04316 17.2271C8.03637 16.9579 8.00413 16.6755 7.93115 16.4146Z" fill="#ACD08D"/>
<path d="M7.23359 12.3571C6.88905 12.372 6.57167 12.4833 6.3663 12.7193C6.34254 12.7459 6.33745 12.7675 6.34594 12.7857C6.54282 12.5232 6.87038 12.3886 7.23359 12.3571Z" fill="#ACD08D"/>
<path d="M7.6104 13.1048C7.75297 13.0483 7.88875 13.0383 8.01604 13.0599C8.43356 13.0466 8.84768 13.1978 9.19392 13.4254C9.13112 13.339 9.06153 13.2543 8.99025 13.1712C8.55576 12.9851 8.06186 12.9253 7.6087 13.1048H7.6104Z" fill="#ACD08D"/>
<path d="M9.11076 13.7993C9.08191 13.7844 9.05305 13.7677 9.0242 13.7511C8.56934 14.0203 7.93458 14.0585 7.50687 13.7561C7.39825 13.6797 7.24041 13.482 7.04523 13.3008C7.21665 13.4903 7.35243 13.688 7.45087 13.7694C7.89724 14.1399 8.62705 14.1117 9.11076 13.7993Z" fill="#ACD08D"/>
<path d="M7.50685 13.7578C7.93625 14.0602 8.56932 14.0203 9.02418 13.7528C8.57781 13.4853 8.18914 12.9502 7.60699 13.1297C7.74277 13.0881 7.88025 13.0665 8.01602 13.0616C7.88703 13.0416 7.75295 13.0499 7.61039 13.1064C8.06355 12.9253 8.55744 12.9868 8.99193 13.1729C8.88161 13.0449 8.76281 12.922 8.63551 12.8156C8.274 12.5166 7.7258 12.3388 7.2336 12.3604C6.87039 12.3919 6.54283 12.5265 6.34595 12.7891C6.3748 12.8588 6.59544 12.8987 6.84154 13.1048C6.91452 13.1662 6.98241 13.2344 7.0469 13.3041C7.24209 13.4853 7.39823 13.683 7.50855 13.7594L7.50685 13.7578Z" fill="#ACD08D"/>
<path d="M10.4159 25.4319C10.1155 26.163 10.3225 27.2879 11.0354 27.572C11.1932 27.6335 11.1016 27.3842 11.2577 27.0104C11.3918 26.688 11.6498 26.394 11.7143 26.2328C11.9332 25.7027 11.6803 25.0315 11.2238 24.6809C11.1406 25.2076 10.6637 25.7725 11.0439 26.2893C10.7061 25.8323 10.6858 25.2408 10.8351 24.7208C10.6739 24.9384 10.5228 25.181 10.4176 25.4319H10.4159Z" fill="#ACD08D"/>
<path d="M27.5138 18.7391C27.6971 18.5364 27.8685 18.3088 27.9958 18.0679C28.3641 17.3667 28.264 16.2269 27.5766 15.8813C27.4256 15.8065 27.4935 16.0624 27.3051 16.4213C27.1421 16.732 26.8587 17.0012 26.7772 17.1557C26.5108 17.6641 26.7025 18.3553 27.1235 18.7441C27.2558 18.2274 27.782 17.7057 27.451 17.159C27.7463 17.6442 27.7107 18.234 27.5138 18.7391Z" fill="#ACD08D"/>
<path d="M23.8767 23.8003C23.6577 23.9631 23.4405 24.1525 23.2674 24.3635C22.765 24.98 22.6326 26.1165 23.2334 26.5884C23.3658 26.6914 23.3522 26.4272 23.6085 26.1132C23.8325 25.8407 24.1652 25.6313 24.2755 25.4967C24.6404 25.0498 24.5912 24.3369 24.2568 23.8717C24.0226 24.3519 23.4014 24.7606 23.6136 25.3621C23.4235 24.8288 23.5763 24.2589 23.8733 23.8003H23.8767Z" fill="#ACD08D"/>
<path d="M32.3493 16.4428C32.5614 16.27 32.7668 16.069 32.928 15.8497C33.3998 15.21 33.4745 14.0685 32.8499 13.6265C32.7125 13.5301 32.7379 13.7943 32.4986 14.12C32.2899 14.4024 31.9674 14.6267 31.8639 14.768C31.5227 15.2316 31.6059 15.9427 31.9623 16.3897C32.1727 15.8978 32.7719 15.4609 32.5292 14.8693C32.7464 15.3927 32.6225 15.9693 32.3493 16.4412V16.4428Z" fill="#ACD08D"/>
<path d="M27.507 24.5828C27.541 23.9315 27.0114 23.3034 26.3869 23.0908C26.4955 23.6873 26.1985 24.4699 26.8044 24.8869C26.2663 24.518 26.0202 23.89 25.9846 23.2735C25.893 23.5676 25.8217 23.8833 25.8047 24.1907C25.7572 25.088 26.4055 26.2261 27.283 26.271C27.4748 26.281 27.283 26.0434 27.3084 25.5864C27.3305 25.1893 27.4968 24.7806 27.5087 24.5828H27.507Z" fill="#ACD08D"/>
<path d="M30.3974 8.80299C30.1225 9.02397 29.7525 9.16188 29.615 9.27155C29.1635 9.63543 29.06 10.3433 29.2891 10.865C29.6201 10.4413 30.3143 10.1671 30.2311 9.53574C30.3058 10.0957 30.0359 10.6224 29.6489 11.0112C29.8984 10.8966 30.1496 10.7537 30.3635 10.5825C30.9847 10.0824 31.3547 8.99573 30.8642 8.41252C30.7572 8.28458 30.7131 8.54711 30.3957 8.80133L30.3974 8.80299Z" fill="#ACD08D"/>
<path d="M21.19 37.224C19.0413 34.0139 19.6455 30.2156 19.8254 29.2419C20.7657 24.1658 25.1513 22.0506 26.7365 21.9775C28.2114 21.9094 29.1941 22.1935 30.1446 22.5923C31.6738 23.2337 28.965 21.3278 26.5295 21.3278C21.0084 21.3278 23.8801 23.8351 23.8801 18.45C23.8801 16.6688 23.3268 14.876 22.2032 13.4387C22.6768 14.552 23.1265 15.7533 23.0451 16.9679C22.8567 19.7809 19.194 28.5374 19.6234 17.7173C19.7711 14.0236 20.8268 10.4595 24.7983 8.9226C21.5549 9.06383 18.8155 12.0264 17.9517 14.9192C16.7975 12.0264 14.4197 10.1222 11.9706 8.35767C15.5178 12.7442 17.7819 14.8212 17.7938 21.0819C17.8091 29.9829 13.8919 23.8667 13.8919 19.7095C13.8919 18.131 14.289 16.5342 14.9968 15.2C13.6882 16.2717 12.4594 18.0463 12.4764 20.3542C12.5188 25.8506 15.0205 22.1204 8.20785 22.6272C-1.36964 23.34 15.5314 21.8463 16.1034 29.5975C16.1356 30.0411 17.008 34.0106 15.1376 37.9983C15.4109 37.9983 16.3597 37.2224 17.4764 37.0463C19.34 36.7522 20.0223 37.2024 21.19 37.2224V37.224Z" fill="#595844"/>
</g>
<defs>
<clipPath id="clip0_9_273">
<rect width="36" height="38" fill="white"/>
</clipPath>
</defs>
</svg>
